<svg xmlns="http://www.w3.org/2000/svg" xmlns:xlink="http://www.w3.org/1999/xlink" width="251" height="40" viewBox="0 0 251 40" version="1.1"><script xmlns=""/><script xmlns=""/>
    <!-- Generator: Sketch 61.2 (89653) - https://sketch.com -->
    <title>DailycoinLogo</title>
    <desc>Created with Sketch.</desc>
    <g id="Symbols" stroke="none" stroke-width="1" fill="none" fill-rule="evenodd">
        <g id="header" transform="translate(-165.000000, -58.000000)">
            <g id="DailycoinLogo" transform="translate(165.000000, 58.000000)">
                <g id="dailycoin-logo">
                    <g id="Group" transform="translate(54.285714, 6.666667)" fill="#111111" fill-rule="nonzero">
                        <path d="M26.1142857,13.3333333 C26.1142857,14.8 25.847619,16.2666667 25.3142857,17.7333333 C24.7809524,19.2 23.9809524,20.5333333 22.9142857,21.6 C21.847619,22.6666667 20.5142857,23.7333333 18.9142857,24.4 C17.3142857,25.0666667 15.3142857,25.4666667 13.047619,25.4666667 L5.31428571,25.4666667 C4.64761905,25.4666667 3.84761905,25.4666667 3.04761905,25.4666667 C2.24761905,25.4666667 1.31428571,25.6 0.514285714,25.6 C0.514285714,25.4666667 0.380952381,25.3333333 0.380952381,25.2 C0.380952381,25.0666667 0.380952381,24.9333333 0.380952381,24.9333333 C0.380952381,24.6666667 0.380952381,24.5333333 0.514285714,24.4 C0.647619048,24.2666667 0.647619048,24.2666667 0.780952381,24.2666667 C1.44761905,24.1333333 2.11428571,24 2.51428571,23.7333333 C2.91428571,23.4666667 3.18095238,23.2 3.18095238,22.6666667 L3.18095238,3.73333333 C3.18095238,3.2 3.04761905,2.93333333 2.64761905,2.66666667 C2.24761905,2.4 1.71428571,2.26666667 0.780952381,2.13333333 C0.514285714,2.13333333 0.514285714,2 0.380952381,1.86666667 C0.380952381,1.73333333 0.247619048,1.6 0.247619048,1.33333333 C0.247619048,1.2 0.247619048,1.2 0.247619048,1.06666667 C0.247619048,0.933333333 0.247619048,0.8 0.380952381,0.666666667 C0.914285714,0.666666667 1.31428571,0.8 1.84761905,0.8 C2.24761905,0.8 2.64761905,0.8 3.04761905,0.8 C3.44761905,0.8 3.71428571,0.8 4.11428571,0.8 C4.51428571,0.8 4.78095238,0.8 5.18095238,0.8 L12.7809524,0.8 C14.9142857,0.8 16.7809524,1.2 18.3809524,1.73333333 C19.9809524,2.4 21.3142857,3.33333333 22.3809524,4.4 C23.447619,5.46666667 24.247619,6.8 24.9142857,8.26666667 C25.847619,10.1333333 26.1142857,11.7333333 26.1142857,13.3333333 Z M20.9142857,14.1333333 C20.9142857,12.1333333 20.647619,10.5333333 20.247619,9.06666667 C19.847619,7.6 19.1809524,6.53333333 18.247619,5.6 C17.447619,4.66666667 16.247619,4 15.047619,3.6 C13.7142857,3.2 12.247619,2.93333333 10.647619,2.93333333 L8.24761905,2.93333333 L8.24761905,22.2666667 C8.24761905,22.5333333 8.24761905,22.6666667 8.38095238,22.9333333 C8.51428571,23.0666667 8.64761905,23.2 8.78095238,23.3333333 C9.04761905,23.4666667 9.31428571,23.4666667 9.71428571,23.6 C10.1142857,23.6 10.647619,23.7333333 11.3142857,23.7333333 C14.5142857,23.7333333 17.047619,22.9333333 18.5142857,21.2 C20.1142857,19.4666667 20.9142857,17.0666667 20.9142857,14.1333333 Z" id="Shape"/>
                        <path d="M40.647619,17.3333333 L32.7809524,17.3333333 L30.7809524,22.5333333 C30.647619,22.6666667 30.647619,22.8 30.647619,22.9333333 C30.647619,23.0666667 30.647619,23.2 30.647619,23.3333333 C30.647619,23.6 30.7809524,23.8666667 31.047619,24 C31.3142857,24.1333333 31.847619,24.2666667 32.647619,24.4 C33.047619,24.4 33.1809524,24.6666667 33.1809524,25.0666667 C33.1809524,25.2 33.1809524,25.4666667 33.047619,25.7333333 C32.3809524,25.7333333 31.7142857,25.6 30.9142857,25.6 C30.1142857,25.6 29.447619,25.6 28.647619,25.6 C28.1142857,25.6 27.5809524,25.6 27.047619,25.6 C26.5142857,25.6 25.847619,25.7333333 25.1809524,25.7333333 C25.1809524,25.6 25.047619,25.4666667 25.047619,25.3333333 C25.047619,25.2 25.047619,25.0666667 25.047619,25.0666667 C25.047619,24.5333333 25.1809524,24.4 25.5809524,24.2666667 C26.3809524,24.1333333 26.9142857,24 27.3142857,23.7333333 C27.7142857,23.6 27.9809524,23.2 28.1142857,22.8 L37.1809524,1.33333333 C37.447619,0.933333333 37.7142857,0.666666667 38.1142857,0.666666667 C38.247619,0.666666667 38.3809524,0.666666667 38.5142857,0.666666667 C38.647619,0.666666667 38.7809524,0.666666667 38.9142857,0.666666667 L47.9809524,23.0666667 C48.1142857,23.4666667 48.3809524,23.7333333 48.7809524,23.8666667 C49.1809524,24 49.7142857,24.1333333 50.1142857,24.2666667 C50.5142857,24.4 50.647619,24.5333333 50.647619,25.0666667 C50.647619,25.3333333 50.647619,25.4666667 50.5142857,25.7333333 C49.7142857,25.7333333 48.9142857,25.6 48.1142857,25.6 C47.3142857,25.6 46.647619,25.6 45.9809524,25.6 C45.5809524,25.6 45.1809524,25.6 44.647619,25.6 C44.1142857,25.6 43.5809524,25.6 43.047619,25.6 C42.5142857,25.6 41.9809524,25.6 41.447619,25.6 C40.9142857,25.6 40.5142857,25.6 40.1142857,25.6 C40.1142857,25.4666667 39.9809524,25.3333333 39.9809524,25.2 C39.9809524,25.0666667 39.9809524,24.9333333 39.9809524,24.9333333 C39.9809524,24.6666667 39.9809524,24.5333333 40.1142857,24.4 C40.247619,24.2666667 40.247619,24.2666667 40.3809524,24.1333333 C41.047619,24 41.5809524,23.8666667 41.847619,23.7333333 C42.1142857,23.6 42.3809524,23.3333333 42.3809524,23.0666667 C42.3809524,22.9333333 42.3809524,22.6666667 42.247619,22.5333333 L40.647619,17.3333333 Z M39.847619,15.4666667 L36.647619,6.93333333 L33.3142857,15.4666667 L39.847619,15.4666667 Z" id="Shape"/>
                        <path d="M59.847619,22.9333333 C59.847619,23.2 59.847619,23.3333333 59.847619,23.6 C59.847619,23.7333333 59.9809524,23.8666667 60.1142857,24 C60.247619,24.1333333 60.5142857,24.2666667 60.7809524,24.2666667 C61.047619,24.4 61.5809524,24.4 61.9809524,24.5333333 C62.247619,24.5333333 62.3809524,24.8 62.3809524,25.2 C62.3809524,25.3333333 62.3809524,25.3333333 62.3809524,25.6 C62.3809524,25.7333333 62.3809524,25.8666667 62.3809524,26 C61.5809524,26 60.7809524,25.8666667 59.847619,25.8666667 C58.9142857,25.8666667 58.1142857,25.8666667 57.447619,25.8666667 C56.7809524,25.8666667 55.847619,25.8666667 55.047619,25.8666667 C54.1142857,25.8666667 53.3142857,26 52.5142857,26 C52.5142857,25.8666667 52.3809524,25.7333333 52.3809524,25.6 C52.3809524,25.4666667 52.3809524,25.3333333 52.3809524,25.2 C52.3809524,24.8 52.5142857,24.5333333 52.7809524,24.5333333 C53.3142857,24.4 53.7142857,24.4 53.9809524,24.2666667 C54.247619,24.1333333 54.5142857,24.1333333 54.647619,24 C54.7809524,23.8666667 54.9142857,23.7333333 54.9142857,23.6 C54.9142857,23.4666667 55.047619,23.2 55.047619,22.9333333 L55.047619,4 C55.047619,3.73333333 55.047619,3.6 54.9142857,3.33333333 C54.9142857,3.2 54.7809524,3.06666667 54.647619,2.93333333 C54.5142857,2.8 54.247619,2.66666667 53.9809524,2.66666667 C53.7142857,2.53333333 53.1809524,2.53333333 52.7809524,2.4 C52.5142857,2.26666667 52.3809524,2.13333333 52.3809524,1.73333333 C52.3809524,1.6 52.3809524,1.6 52.3809524,1.33333333 C52.3809524,1.2 52.3809524,1.06666667 52.5142857,0.933333333 C53.3142857,0.933333333 54.1142857,1.06666667 55.047619,1.06666667 C55.9809524,1.06666667 56.7809524,1.06666667 57.447619,1.06666667 C58.1142857,1.06666667 58.9142857,1.06666667 59.847619,1.06666667 C60.7809524,1.06666667 61.5809524,0.933333333 62.3809524,0.933333333 C62.3809524,1.06666667 62.3809524,1.2 62.3809524,1.33333333 C62.3809524,1.46666667 62.3809524,1.6 62.3809524,1.73333333 C62.3809524,2.13333333 62.247619,2.26666667 61.9809524,2.4 C61.7142857,2.53333333 61.3142857,2.53333333 61.047619,2.66666667 C60.7809524,2.8 60.5142857,2.8 60.3809524,2.93333333 C60.247619,3.06666667 60.1142857,3.2 60.1142857,3.33333333 C60.1142857,3.46666667 60.1142857,3.73333333 60.1142857,4 L59.847619,22.9333333 Z" id="Path"/>
                        <path d="M73.447619,22.5333333 C73.447619,23.0666667 73.847619,23.4666667 74.5142857,23.6 C75.1809524,23.7333333 76.247619,23.8666667 77.847619,23.8666667 L79.3142857,23.8666667 C79.9809524,23.8666667 80.5142857,23.8666667 80.9142857,23.6 C81.3142857,23.4666667 81.847619,23.2 82.1142857,22.9333333 C82.5142857,22.6666667 82.7809524,22.1333333 83.047619,21.7333333 C83.3142857,21.2 83.5809524,20.5333333 83.847619,19.8666667 C83.9809524,19.6 84.1142857,19.6 84.3809524,19.6 C84.5142857,19.6 84.647619,19.6 84.7809524,19.7333333 C84.9142857,19.8666667 85.1809524,19.8666667 85.3142857,20 C85.047619,20.8 84.9142857,21.7333333 84.7809524,22.6666667 C84.647619,23.6 84.5142857,24.5333333 84.3809524,25.4666667 C84.3809524,25.7333333 84.247619,26 84.1142857,26 C83.9809524,26.1333333 83.847619,26.1333333 83.7142857,26.1333333 C83.447619,26.1333333 83.1809524,26.1333333 82.9142857,26.1333333 C82.5142857,26.1333333 82.1142857,26.1333333 81.7142857,26.1333333 C81.3142857,26.1333333 80.9142857,26.1333333 80.3809524,26.1333333 C79.9809524,26.1333333 79.5809524,26.1333333 79.1809524,26.1333333 L70.647619,26.1333333 C69.9809524,26.1333333 69.047619,26.1333333 68.1142857,26.1333333 C67.1809524,26.1333333 66.3809524,26.2666667 65.5809524,26.2666667 C65.5809524,26.1333333 65.447619,26 65.447619,25.8666667 C65.447619,25.7333333 65.447619,25.6 65.447619,25.4666667 C65.447619,25.0666667 65.5809524,24.9333333 65.847619,24.8 C66.7809524,24.6666667 67.447619,24.4 67.847619,24.2666667 C68.247619,24.1333333 68.5142857,23.7333333 68.5142857,23.2 L68.5142857,4.26666667 C68.5142857,4 68.5142857,3.86666667 68.3809524,3.6 C68.3809524,3.46666667 68.247619,3.33333333 68.1142857,3.2 C67.9809524,3.06666667 67.7142857,2.93333333 67.447619,2.93333333 C67.1809524,2.8 66.647619,2.8 66.247619,2.66666667 C65.9809524,2.53333333 65.847619,2.4 65.847619,2 C65.847619,1.86666667 65.847619,1.86666667 65.847619,1.6 C65.847619,1.46666667 65.847619,1.33333333 65.9809524,1.2 C66.7809524,1.2 67.5809524,1.33333333 68.5142857,1.33333333 C69.447619,1.33333333 70.247619,1.33333333 70.9142857,1.33333333 C71.3142857,1.33333333 71.7142857,1.33333333 72.1142857,1.33333333 C72.5142857,1.33333333 73.047619,1.33333333 73.5809524,1.33333333 C74.1142857,1.33333333 74.5142857,1.33333333 75.047619,1.33333333 C75.5809524,1.33333333 75.9809524,1.33333333 76.3809524,1.2 C76.3809524,1.33333333 76.3809524,1.46666667 76.3809524,1.6 C76.3809524,1.73333333 76.3809524,1.86666667 76.3809524,2 C76.3809524,2.4 76.247619,2.53333333 75.9809524,2.66666667 C75.047619,2.66666667 74.3809524,2.8 73.9809524,3.06666667 C73.5809524,3.33333333 73.447619,3.73333333 73.447619,4.13333333 L73.447619,22.5333333 Z" id="Path"/>
                        <path d="M92.247619,15.4666667 L86.247619,4 C85.9809524,3.46666667 85.5809524,3.06666667 85.1809524,2.93333333 C84.7809524,2.66666667 84.247619,2.53333333 83.5809524,2.53333333 C83.3142857,2.53333333 83.1809524,2.26666667 83.1809524,1.73333333 C83.1809524,1.73333333 83.1809524,1.6 83.1809524,1.6 C83.1809524,1.6 83.1809524,1.46666667 83.1809524,1.33333333 L83.1809524,1.06666667 C83.7142857,1.06666667 84.3809524,1.2 85.3142857,1.2 C86.1142857,1.2 87.1809524,1.2 88.1142857,1.2 C88.5142857,1.2 88.9142857,1.2 89.3142857,1.2 C89.847619,1.2 90.247619,1.2 90.7809524,1.2 C91.3142857,1.2 91.7142857,1.2 92.247619,1.2 C92.647619,1.2 93.047619,1.2 93.3142857,1.06666667 C93.3142857,1.33333333 93.447619,1.46666667 93.447619,1.6 C93.447619,1.73333333 93.447619,1.73333333 93.447619,1.86666667 C93.447619,2.26666667 93.3142857,2.53333333 93.047619,2.53333333 C92.3809524,2.66666667 91.9809524,2.66666667 91.7142857,2.8 C91.447619,2.93333333 91.3142857,3.06666667 91.3142857,3.33333333 C91.3142857,3.6 91.447619,3.73333333 91.5809524,4.13333333 L95.9809524,12.9333333 L100.380952,4.8 C100.647619,4.26666667 100.780952,3.86666667 100.780952,3.6 C100.780952,3.33333333 100.647619,3.06666667 100.380952,2.93333333 C100.114286,2.8 99.5809524,2.66666667 98.9142857,2.53333333 C98.647619,2.53333333 98.3809524,2.26666667 98.3809524,1.86666667 C98.3809524,1.73333333 98.3809524,1.6 98.5142857,1.2 C99.047619,1.2 99.7142857,1.33333333 100.514286,1.33333333 C101.314286,1.33333333 101.980952,1.33333333 102.647619,1.33333333 C103.180952,1.33333333 103.847619,1.33333333 104.514286,1.33333333 C105.180952,1.33333333 105.847619,1.2 106.514286,1.2 C106.514286,1.33333333 106.647619,1.46666667 106.647619,1.6 C106.647619,1.73333333 106.647619,1.73333333 106.647619,1.86666667 C106.647619,2.26666667 106.514286,2.53333333 106.247619,2.53333333 C105.314286,2.66666667 104.647619,2.8 104.380952,3.06666667 C103.980952,3.2 103.714286,3.6 103.447619,4 L97.1809524,15.4666667 L97.1809524,22.9333333 C97.1809524,23.2 97.1809524,23.4666667 97.3142857,23.6 C97.447619,23.7333333 97.5809524,23.8666667 97.7142857,24 C97.847619,24.1333333 98.247619,24.2666667 98.5142857,24.2666667 C98.9142857,24.4 99.3142857,24.4 99.847619,24.5333333 C99.9809524,24.5333333 100.114286,24.6666667 100.114286,24.6666667 C100.247619,24.8 100.247619,24.9333333 100.247619,25.2 C100.247619,25.2 100.247619,25.3333333 100.247619,25.3333333 C100.247619,25.3333333 100.247619,25.4666667 100.247619,25.6 L100.247619,25.8666667 C99.847619,25.8666667 99.447619,25.8666667 99.1809524,25.8666667 C98.7809524,25.8666667 98.5142857,25.8666667 98.1142857,25.8666667 C97.447619,25.8666667 96.9142857,25.7333333 96.247619,25.7333333 C95.5809524,25.7333333 95.047619,25.7333333 94.647619,25.7333333 C94.247619,25.7333333 93.7142857,25.7333333 93.047619,25.7333333 C92.5142857,25.7333333 91.847619,25.7333333 91.3142857,25.8666667 C91.047619,25.8666667 90.647619,25.8666667 90.3809524,25.8666667 C90.1142857,25.8666667 89.7142857,25.8666667 89.447619,25.8666667 L89.447619,25.6 C89.447619,25.4666667 89.447619,25.4666667 89.447619,25.3333333 C89.447619,25.3333333 89.447619,25.2 89.447619,25.2 C89.447619,24.9333333 89.447619,24.8 89.5809524,24.6666667 C89.7142857,24.5333333 89.7142857,24.5333333 89.847619,24.5333333 C90.3809524,24.4 90.7809524,24.4 91.1809524,24.2666667 C91.5809524,24.1333333 91.847619,24.1333333 91.9809524,24 C92.247619,23.8666667 92.3809524,23.7333333 92.3809524,23.6 C92.5142857,23.4666667 92.5142857,23.2 92.5142857,22.9333333 L92.247619,15.4666667 Z" id="Path"/>
                        <path d="M118.247619,26.2666667 C116.114286,26.2666667 114.247619,25.8666667 112.647619,25.3333333 C111.047619,24.6666667 109.714286,23.7333333 108.780952,22.6666667 C107.714286,21.4666667 107.047619,20.1333333 106.514286,18.6666667 C105.980952,17.0666667 105.714286,15.4666667 105.714286,13.7333333 C105.714286,12.2666667 105.980952,10.8 106.514286,9.2 C107.047619,7.73333333 107.847619,6.4 108.914286,5.06666667 C109.980952,3.86666667 111.314286,2.8 113.047619,2.13333333 C114.780952,1.33333333 116.780952,0.933333333 119.047619,0.933333333 C120.380952,0.933333333 121.580952,1.06666667 122.647619,1.2 C123.714286,1.33333333 124.914286,1.6 126.247619,2 C126.247619,2.66666667 126.380952,3.6 126.514286,4.53333333 C126.647619,5.6 126.914286,6.66666667 127.180952,7.6 C127.047619,7.6 126.914286,7.6 126.647619,7.73333333 C126.380952,7.73333333 126.247619,7.73333333 126.247619,7.73333333 C125.980952,7.73333333 125.847619,7.73333333 125.714286,7.6 C125.580952,7.6 125.447619,7.46666667 125.447619,7.2 C125.180952,6.4 124.914286,5.73333333 124.514286,5.06666667 C124.114286,4.53333333 123.714286,4 123.314286,3.73333333 C122.914286,3.46666667 122.247619,3.2 121.580952,2.93333333 C120.914286,2.8 120.114286,2.66666667 119.314286,2.66666667 C117.980952,2.66666667 116.780952,2.93333333 115.714286,3.33333333 C114.647619,3.73333333 113.847619,4.4 113.047619,5.33333333 C112.380952,6.13333333 111.847619,7.2 111.447619,8.4 C111.047619,9.6 110.914286,10.9333333 110.914286,12.5333333 C110.914286,14.1333333 111.180952,15.7333333 111.580952,17.0666667 C111.980952,18.5333333 112.647619,19.7333333 113.314286,20.6666667 C114.114286,21.7333333 115.047619,22.5333333 115.980952,23.0666667 C117.047619,23.6 118.114286,24 119.447619,24 C120.514286,24 121.314286,23.8666667 121.980952,23.7333333 C122.647619,23.6 123.314286,23.2 123.847619,22.9333333 C124.380952,22.5333333 124.780952,22 125.180952,21.4666667 C125.580952,20.9333333 125.847619,20.1333333 126.247619,19.3333333 C126.380952,19.0666667 126.380952,18.9333333 126.647619,18.9333333 C126.780952,18.8 126.914286,18.8 127.180952,18.8 C127.314286,18.8 127.447619,18.8 127.714286,18.8 C127.847619,18.8 128.114286,18.9333333 128.247619,18.9333333 C128.114286,19.3333333 127.980952,19.8666667 127.714286,20.4 C127.580952,20.9333333 127.314286,21.4666667 127.180952,22 C127.047619,22.5333333 126.780952,23.0666667 126.647619,23.7333333 C126.514286,24.2666667 126.380952,24.8 126.247619,25.3333333 C125.047619,25.6 123.714286,25.7333333 122.514286,25.8666667 C121.180952,26.2666667 119.714286,26.2666667 118.247619,26.2666667 Z" id="Path"/>
                        <path d="M130.114286,13.6 C130.114286,11.8666667 130.514286,10.1333333 131.180952,8.66666667 C131.847619,7.2 132.780952,5.73333333 133.980952,4.66666667 C135.180952,3.46666667 136.514286,2.66666667 137.980952,2 C139.580952,1.33333333 141.180952,1.06666667 142.914286,1.06666667 C144.780952,1.06666667 146.380952,1.33333333 147.980952,2 C149.580952,2.66666667 150.914286,3.46666667 151.980952,4.66666667 C153.180952,5.86666667 153.980952,7.2 154.647619,8.66666667 C155.314286,10.2666667 155.580952,11.8666667 155.580952,13.7333333 C155.580952,15.4666667 155.180952,17.2 154.514286,18.6666667 C153.847619,20.2666667 152.914286,21.6 151.714286,22.6666667 C150.514286,23.8666667 149.180952,24.6666667 147.580952,25.3333333 C145.980952,26 144.380952,26.2666667 142.647619,26.2666667 C140.780952,26.2666667 139.180952,26 137.580952,25.3333333 C135.980952,24.6666667 134.647619,23.8666667 133.580952,22.6666667 C132.514286,21.4666667 131.580952,20.1333333 130.914286,18.6666667 C130.380952,17.2 130.114286,15.4666667 130.114286,13.6 Z M143.314286,24.4 C144.380952,24.4 145.314286,24.1333333 146.114286,23.7333333 C146.914286,23.3333333 147.714286,22.6666667 148.380952,21.8666667 C149.047619,21.0666667 149.447619,20.1333333 149.847619,19.0666667 C150.247619,18 150.380952,16.8 150.380952,15.6 C150.380952,13.8666667 150.247619,12.1333333 149.847619,10.6666667 C149.447619,9.2 149.047619,7.86666667 148.247619,6.66666667 C147.580952,5.6 146.647619,4.66666667 145.714286,4 C144.647619,3.33333333 143.447619,3.06666667 142.114286,3.06666667 C141.180952,3.06666667 140.380952,3.2 139.580952,3.6 C138.780952,4 137.980952,4.53333333 137.447619,5.33333333 C136.780952,6.13333333 136.380952,6.93333333 135.980952,8 C135.580952,9.06666667 135.447619,10.2666667 135.447619,11.6 C135.447619,13.4666667 135.580952,15.2 135.980952,16.8 C136.380952,18.4 136.914286,19.7333333 137.580952,20.9333333 C138.247619,22.1333333 139.047619,22.9333333 140.114286,23.6 C140.914286,24.1333333 142.114286,24.4 143.314286,24.4 Z" id="Shape"/>
                        <path d="M165.714286,23.2 C165.714286,23.4666667 165.714286,23.6 165.714286,23.8666667 C165.714286,24 165.847619,24.1333333 165.980952,24.2666667 C166.114286,24.4 166.380952,24.5333333 166.647619,24.5333333 C166.914286,24.6666667 167.447619,24.6666667 167.847619,24.8 C168.114286,24.8 168.247619,25.0666667 168.247619,25.4666667 C168.247619,25.6 168.247619,25.6 168.247619,25.8666667 C168.247619,26 168.247619,26.1333333 168.247619,26.2666667 C167.447619,26.2666667 166.647619,26.1333333 165.714286,26.1333333 C164.780952,26.1333333 163.980952,26.1333333 163.314286,26.1333333 C162.647619,26.1333333 161.714286,26.1333333 160.914286,26.1333333 C159.980952,26.1333333 159.180952,26.2666667 158.380952,26.2666667 C158.380952,26.1333333 158.247619,26 158.247619,25.8666667 C158.247619,25.7333333 158.247619,25.6 158.247619,25.4666667 C158.247619,25.0666667 158.380952,24.8 158.647619,24.8 C159.180952,24.6666667 159.580952,24.6666667 159.847619,24.5333333 C160.114286,24.4 160.380952,24.4 160.514286,24.2666667 C160.647619,24.1333333 160.780952,24 160.780952,23.8666667 C160.780952,23.7333333 160.914286,23.4666667 160.914286,23.2 L160.914286,4.26666667 C160.914286,4 160.914286,3.86666667 160.780952,3.6 C160.780952,3.46666667 160.647619,3.33333333 160.514286,3.2 C160.380952,3.06666667 160.114286,2.93333333 159.847619,2.93333333 C159.580952,2.8 159.047619,2.8 158.647619,2.66666667 C158.380952,2.53333333 158.247619,2.4 158.247619,2 C158.247619,1.86666667 158.247619,1.86666667 158.247619,1.6 C158.247619,1.46666667 158.247619,1.33333333 158.380952,1.2 C159.180952,1.2 159.980952,1.33333333 160.914286,1.33333333 C161.847619,1.33333333 162.647619,1.33333333 163.314286,1.33333333 C163.980952,1.33333333 164.780952,1.33333333 165.714286,1.33333333 C166.647619,1.33333333 167.447619,1.2 168.247619,1.2 C168.247619,1.33333333 168.247619,1.46666667 168.247619,1.6 C168.247619,1.73333333 168.247619,1.86666667 168.247619,2 C168.247619,2.4 168.114286,2.53333333 167.847619,2.66666667 C167.314286,2.8 166.914286,2.8 166.647619,2.93333333 C166.380952,3.06666667 166.114286,3.06666667 165.980952,3.2 C165.847619,3.33333333 165.714286,3.46666667 165.714286,3.6 C165.714286,3.73333333 165.714286,4 165.714286,4.26666667 L165.714286,23.2 Z" id="Path"/>
                        <path d="M191.180952,17.8666667 L191.180952,4.53333333 C191.180952,4 191.047619,3.6 190.647619,3.33333333 C190.247619,3.06666667 189.580952,2.93333333 188.647619,2.8 C188.380952,2.66666667 188.114286,2.53333333 188.114286,2.13333333 C188.114286,2 188.114286,2 188.114286,1.86666667 C188.114286,1.73333333 188.114286,1.6 188.247619,1.46666667 C188.914286,1.6 189.447619,1.6 190.114286,1.6 C190.780952,1.6 191.447619,1.6 192.247619,1.6 C193.047619,1.6 193.714286,1.6 194.380952,1.6 C194.914286,1.6 195.580952,1.46666667 196.114286,1.46666667 C196.114286,1.6 196.114286,1.73333333 196.114286,1.86666667 C196.114286,2 196.114286,2.13333333 196.114286,2.13333333 C196.114286,2.53333333 195.980952,2.8 195.714286,2.8 C194.914286,2.93333333 194.380952,3.06666667 193.980952,3.33333333 C193.714286,3.6 193.580952,3.86666667 193.580952,4.4 L193.580952,26.4 C193.447619,26.4 193.314286,26.4 193.047619,26.4 C192.780952,26.4 192.647619,26.4 192.514286,26.4 C192.380952,26.4 192.114286,26.4 191.980952,26.2666667 C191.847619,26.1333333 191.580952,26 191.314286,25.7333333 L176.380952,6.93333333 L176.380952,23.2 C176.380952,23.4666667 176.380952,23.6 176.380952,23.8666667 C176.380952,24 176.514286,24.1333333 176.647619,24.2666667 C176.780952,24.4 177.047619,24.5333333 177.314286,24.5333333 C177.580952,24.6666667 178.114286,24.6666667 178.514286,24.8 C178.647619,24.8 178.780952,24.9333333 178.780952,24.9333333 C178.914286,25.0666667 178.914286,25.2 178.914286,25.4666667 C178.914286,25.6 178.914286,25.8666667 178.780952,26.1333333 C178.114286,26.1333333 177.580952,26 177.047619,26 C176.514286,26 175.847619,26 175.180952,26 C174.514286,26 173.714286,26 173.047619,26 C172.380952,26 171.714286,26.1333333 171.180952,26.1333333 C171.180952,26 171.047619,25.8666667 171.047619,25.7333333 C171.047619,25.6 171.047619,25.4666667 171.047619,25.4666667 C171.047619,25.2 171.047619,25.0666667 171.180952,24.9333333 C171.314286,24.8 171.314286,24.8 171.447619,24.8 C172.380952,24.6666667 172.914286,24.4 173.314286,24.2666667 C173.580952,24 173.714286,23.7333333 173.714286,23.2 L173.714286,4.13333333 C173.714286,3.73333333 173.580952,3.46666667 173.314286,3.2 C173.047619,2.93333333 172.514286,2.8 171.580952,2.66666667 C171.314286,2.53333333 171.180952,2.4 171.180952,2 C171.180952,2 171.180952,1.86666667 171.180952,1.86666667 C171.180952,1.86666667 171.180952,1.73333333 171.180952,1.6 L171.180952,1.33333333 C171.580952,1.33333333 171.847619,1.33333333 172.247619,1.33333333 C172.514286,1.33333333 172.914286,1.33333333 173.180952,1.33333333 C173.714286,1.33333333 174.247619,1.33333333 174.914286,1.33333333 C175.447619,1.33333333 175.980952,1.33333333 176.247619,1.33333333 C176.914286,1.33333333 177.447619,1.33333333 177.714286,1.46666667 C177.980952,1.46666667 178.114286,1.6 178.380952,1.86666667 L191.180952,17.8666667 Z" id="Path"/>
                    </g>
                    <g id="Group" fill-rule="nonzero">
                        <circle id="Oval" fill="#F7BE23" cx="3.6" cy="3.2" r="3.2"/>
                        <circle id="Oval" fill="#F7BE23" cx="3.6" cy="11.6" r="3.2"/>
                        <circle id="Oval" fill="#F7BE23" cx="3.6" cy="20" r="3.2"/>
                        <circle id="Oval" fill="#F7BE23" cx="3.6" cy="28.4" r="3.2"/>
                        <circle id="Oval" fill="#F7BE23" cx="3.6" cy="36.8" r="3.2"/>
                        <circle id="Oval" fill="#F7BE23" cx="3.6" cy="3.2" r="3.2"/>
                        <circle id="Oval" fill="#F7BE23" cx="3.6" cy="11.6" r="3.2"/>
                        <circle id="Oval" fill="#F7BE23" cx="3.6" cy="20" r="3.2"/>
                        <circle id="Oval" fill="#F7BE23" cx="3.6" cy="28.4" r="3.2"/>
                        <circle id="Oval" fill="#F7BE23" cx="3.6" cy="36.8" r="3.2"/>
                        <circle id="Oval" fill="#F7BE23" cx="12" cy="3.2" r="3.2"/>
                        <circle id="Oval" fill="#F7BE23" cx="12" cy="11.6" r="3.2"/>
                        <circle id="Oval" fill="#F7BE23" cx="12" cy="20" r="3.2"/>
                        <circle id="Oval" fill="#F7BE23" cx="12" cy="28.4" r="3.2"/>
                        <circle id="Oval" fill="#F7BE23" cx="12" cy="36.8" r="3.2"/>
                        <circle id="Oval" fill="#F7BE23" cx="20.4" cy="3.2" r="3.2"/>
                        <circle id="Oval" fill="#F7BE23" cx="20.4" cy="11.6" r="3.2"/>
                        <circle id="Oval" fill="#F7BE23" cx="20.4" cy="20" r="3.2"/>
                        <circle id="Oval" fill="#F7BE23" cx="20.4" cy="28.4" r="3.2"/>
                        <circle id="Oval" fill="#F7BE23" cx="28.8" cy="11.6" r="3.2"/>
                        <circle id="Oval" fill="#F7BE23" cx="28.8" cy="20" r="3.2"/>
                        <circle id="Oval" fill="#F7BE23" cx="28.8" cy="28.4" r="3.2"/>
                        <circle id="Oval" fill="#F7BE23" cx="20.4" cy="36.8" r="3.2"/>
                        <circle id="Oval" fill="#111111" cx="37.2" cy="36.8" r="3.2"/>
                    </g>
                </g>
            </g>
        </g>
    </g>
</svg>